# xmcd CD database file
#
# Track frame offsets:
#	150
#	15105
#	27833
#	43263
#	57408
#	71640
#	85835
#	97360
#	111858
#	126598
#	141243
#	154628
#	169178
#	183523
#	198693
#	212116
#	225504
#	240664
#	255552
#	271014
#	284967
#	299654
#	313054
#	327424
#
# Disc length: 4537 seconds
#
# Revision: 0
# Processed by: cddbd v1.5.2PL0 Copyright (c) Steve Scherf et al.
# Submitted via: CDex 1.51
#
DISCID=7811b718
DTITLE=Billie Holiday - Complete Decca Recordings 1944-1950 (DC edit)
DYEAR=1900
DGENRE=Jazz
TTITLE0=01-Lover Man (Oh Where Can You Be)_
TTITLE1=02-No More
TTITLE2=07-Don't Explain
TTITLE3=10-What Is This Thing Called Love
TTITLE4=11-Good Morning Heartache
TTITLE5=13-No Good Man
TTITLE6=16-Big Stuff
TTITLE7=18-Baby I Don't Cry Over You
TTITLE8=20-I'll Look Around
TTITLE9=24-Guilty
TTITLE10=26-There Is No Greater Love
TTITLE11=01-Easy Living
TTITLE12=03-Solitude
TTITLE13=04-Weep No More
TTITLE14=06-I Loves You Porgy
TTITLE15=08-My Man (Mon Homme)
TTITLE16=10-'tain't Nobody's Business If I Do
TTITLE17=18-Now Or Never
TTITLE18=19-You're My Thrill
TTITLE19=20-Crazy He Calls Me
TTITLE20=21-Please Tell Me Now
TTITLE21=22-Somebody's On My Mind
TTITLE22=23-God Bless The Child
TTITLE23=24-This Is Heaven To Me
EXTD=
EXTT0=
EXTT1=
EXTT2=
EXTT3=
EXTT4=
EXTT5=
EXTT6=
EXTT7=
EXTT8=
EXTT9=
EXTT10=
EXTT11=
EXTT12=
EXTT13=
EXTT14=
EXTT15=
EXTT16=
EXTT17=
EXTT18=
EXTT19=
EXTT20=
EXTT21=
EXTT22=
EXTT23=
PLAYORDER=
